<svg width="520" height="420" viewBox="0 0 520 420" fill="none" xmlns="http://www.w3.org/2000/svg">
  <rect width="520" height="420" rx="36" fill="#FFF8EE"/>
  <circle cx="262" cy="210" r="128" fill="#102133" fill-opacity="0.06"/>
  <circle cx="262" cy="210" r="88" fill="#CF5B2C" fill-opacity="0.10"/>
  <circle cx="262" cy="210" r="50" fill="#102133"/>
  <path d="M262 52C349.261 52 420 122.739 420 210" stroke="#102133" stroke-opacity="0.24" stroke-width="22" stroke-linecap="round"/>
  <path d="M104 210C104 122.739 174.739 52 262 52" stroke="#CF5B2C" stroke-opacity="0.55" stroke-width="18" stroke-linecap="round"/>
  <path d="M262 368C174.739 368 104 297.261 104 210" stroke="#C79E53" stroke-opacity="0.85" stroke-width="18" stroke-linecap="round"/>
  <path d="M420 210C420 297.261 349.261 368 262 368" stroke="#102133" stroke-opacity="0.38" stroke-width="12" stroke-linecap="round"/>
  <circle cx="262" cy="210" r="18" fill="#FFF8EE"/>
  <circle cx="420" cy="210" r="10" fill="#102133"/>
  <circle cx="262" cy="52" r="10" fill="#CF5B2C"/>
  <circle cx="104" cy="210" r="10" fill="#C79E53"/>
  <circle cx="262" cy="368" r="10" fill="#102133" fill-opacity="0.7"/>
</svg>
